<svg width="907" height="858" viewBox="0 0 907 858" fill="none" xmlns="http://www.w3.org/2000/svg">
<path fill-rule="evenodd" clip-rule="evenodd" d="M376.79 40.5077L415.679 1.78235C418.065 -0.594088 421.935 -0.594088 424.321 1.78235L463.21 40.5077C465.597 42.8841 465.597 46.737 463.21 49.1133C460.824 51.4897 456.955 51.4897 454.568 49.1133L426.111 20.7759L426.111 858L413.889 858L413.889 20.7759L385.432 49.1133C383.045 51.4897 379.176 51.4897 376.79 49.1133C374.403 46.7369 374.403 42.8841 376.79 40.5077Z" fill="#2F201D"/>
<path fill-rule="evenodd" clip-rule="evenodd" d="M47.5897 813.26L38.8224 822.028L30.2085 813.414L38.9758 804.646L47.5897 813.26ZM82.6589 778.191L65.1243 795.726L56.5104 787.112L74.045 769.577L82.6589 778.191ZM117.728 743.122L100.194 760.656L91.5796 752.042L109.114 734.508L117.728 743.122ZM152.797 708.053L135.263 725.587L126.649 716.973L144.183 699.439L152.797 708.053ZM187.867 672.983L170.332 690.518L161.718 681.904L179.253 664.369L187.867 672.983ZM222.936 637.914L205.401 655.449L196.787 646.835L214.322 629.3L222.936 637.914ZM258.005 602.845L240.47 620.38L231.856 611.766L249.391 594.231L258.005 602.845ZM293.074 567.776L275.54 585.31L266.926 576.696L284.46 559.162L293.074 567.776ZM328.143 532.707L310.609 550.241L301.995 541.627L319.529 524.093L328.143 532.707ZM363.213 497.637L345.678 515.172L337.064 506.558L354.599 489.023L363.213 497.637ZM398.282 462.568L380.747 480.103L372.133 471.489L389.668 453.954L398.282 462.568ZM433.351 427.499L415.816 445.033L407.203 436.42L424.737 418.885L433.351 427.499ZM468.42 392.43L450.886 409.964L442.272 401.35L459.806 383.816L468.42 392.43ZM503.489 357.36L485.955 374.895L477.341 366.281L494.876 348.747L503.489 357.36ZM538.559 322.291L521.024 339.826L512.41 331.212L529.945 313.677L538.559 322.291ZM573.628 287.222L556.093 304.757L547.479 296.143L565.014 278.608L573.628 287.222ZM608.697 252.153L591.162 269.688L582.548 261.074L600.083 243.539L608.697 252.153ZM643.766 217.084L626.232 234.618L617.618 226.004L635.152 208.47L643.766 217.084ZM678.835 182.015L661.301 199.549L652.687 190.935L670.221 173.401L678.835 182.015ZM713.904 146.945L696.37 164.48L687.756 155.866L705.291 138.332L713.904 146.945ZM748.974 111.876L731.439 129.411L722.825 120.797L740.36 103.262L748.974 111.876ZM784.043 76.807L766.508 94.3416L757.894 85.7277L775.429 68.1931L784.043 76.807ZM810.345 50.5049L801.578 59.2724L792.964 50.6584L801.731 41.891L810.345 50.5049Z" fill="#2F201D"/>
<path fill-rule="evenodd" clip-rule="evenodd" d="M818.445 382.79L857.216 421.679C859.595 424.065 859.595 427.935 857.216 430.321L818.445 469.21C816.066 471.597 812.209 471.597 809.829 469.21C807.45 466.824 807.45 462.955 809.829 460.568L838.2 432.111L0 432.111L0 419.889L838.2 419.889L809.829 391.432C807.45 389.045 807.45 385.176 809.829 382.79C812.209 380.403 816.066 380.403 818.445 382.79Z" fill="#2F201D"/>
<path fill-rule="evenodd" clip-rule="evenodd" d="M27.0297 81C41.5899 174.817 89.2027 260.332 161.269 322.101C233.335 383.87 325.104 417.82 420 417.82V430C322.199 430 227.621 395.01 153.349 331.351C79.0763 267.691 30.0059 179.558 15 82.8687L27.0297 81Z" fill="#3F518C"/>
<path fill-rule="evenodd" clip-rule="evenodd" d="M421.03 418C435.59 511.817 483.203 597.332 555.269 659.101C627.335 720.87 719.104 754.82 814 754.82V767C716.199 767 621.621 732.01 547.349 668.351C473.076 604.691 424.006 516.558 409 419.869L421.03 418Z" fill="#EC563B"/>
<path d="M307.824 70C304.277 70 301.419 69.1629 299.252 67.4886C297.084 65.8144 296 63.4962 296 60.5341C296 58.7311 296.526 57.3144 297.577 56.2841C298.693 55.2538 299.941 54.7386 301.321 54.7386C302.569 54.7386 303.521 55.125 304.178 55.8977C304.901 56.7348 305.262 57.6364 305.262 58.6023C305.262 60.2121 304.638 61.5 303.39 62.4659C303.061 62.7879 302.832 63.0776 302.7 63.3352C302.569 63.5928 302.503 64.0114 302.503 64.5909C302.503 66.6515 303.915 67.6818 306.74 67.6818C309.039 67.6818 311.01 67.2955 312.652 66.5227C314.294 65.8144 315.936 64.4621 317.579 62.4659C319.221 60.4697 320.502 58.2159 321.421 55.7045C322.407 53.2576 323.293 50.553 324.082 47.5909L328.319 32.0398L327.727 31.8466C325.625 36.0322 322.998 39.6383 319.845 42.6648C316.692 45.6913 313.67 47.2045 310.78 47.2045C308.612 47.2045 306.806 46.3996 305.361 44.7898C303.915 43.1799 303.193 40.8939 303.193 37.9318C303.193 36.5151 303.39 34.8087 303.784 32.8125C304.178 30.7519 304.638 29.1742 305.164 28.0795L311.47 13.6875C311.798 12.9792 312.126 12.0455 312.455 10.8864C312.849 9.72727 313.046 8.76136 313.046 7.98864C313.046 7.08712 312.849 6.34659 312.455 5.76704C312.061 5.1875 311.502 4.89772 310.78 4.89772C308.546 4.89772 306.412 6.57197 304.375 9.92046C302.339 13.2689 300.598 16.875 299.153 20.7386L297.182 20.1591C298.956 14.9432 301.091 10.6288 303.587 7.21591C306.149 3.73863 308.908 2 311.864 2C313.637 2 315.115 2.77273 316.298 4.31818C317.546 5.86364 318.17 8.18182 318.17 11.2727C318.17 12.6894 317.973 14.3958 317.579 16.392C317.184 18.3239 316.725 19.9015 316.199 21.125L309.893 35.517C309.565 36.2254 309.203 37.1591 308.809 38.3182C308.481 39.4773 308.317 40.4432 308.317 41.2159C308.317 43.6629 309.466 44.8864 311.765 44.8864C314.196 44.8864 316.856 43.2765 319.746 40.0568C322.637 36.7727 325.297 32.7803 327.727 28.0795C330.224 23.3144 332.063 18.8712 333.245 14.75L336.497 3.15909H343L331.373 46.0455C330.585 48.8144 329.337 51.8731 327.629 55.2216C325.987 58.6345 323.95 61.5644 321.52 64.0114C319.418 66.1364 317.152 67.6496 314.721 68.5511C312.291 69.517 309.992 70 307.824 70Z" fill="#2F201D"/>
<path d="M67.5042 131C64.03 131 61.2441 130.163 59.1464 128.489C57.0488 126.814 56 124.496 56 121.534C56 119.731 56.5572 118.314 57.6715 117.284C58.7204 116.254 59.9331 115.739 61.3096 115.739C62.5551 115.739 63.5056 116.125 64.1611 116.898C64.8821 117.735 65.2427 118.636 65.2427 119.602C65.2427 121.212 64.6199 122.5 63.3745 123.466C63.0467 123.788 62.8173 124.078 62.6862 124.335C62.5551 124.593 62.4895 125.011 62.4895 125.591C62.4895 127.652 63.8989 128.682 66.7176 128.682C68.9463 128.682 70.8801 128.263 72.5188 127.426C74.2232 126.653 75.8619 125.237 77.4351 123.176C79.0739 121.051 80.3849 118.765 81.3682 116.318C82.417 113.936 83.302 111.36 84.023 108.591C84.4163 107.367 85.0063 105.339 85.7929 102.506C86.645 99.608 87.2678 97.3542 87.6611 95.7443L87.3661 95.5511C85.9895 98.4489 83.9575 101.282 81.2699 104.051C78.6478 106.82 75.8291 108.205 72.8138 108.205C69.3396 108.205 66.6192 107.013 64.6527 104.631C62.7517 102.184 61.8013 98.964 61.8013 94.9716C61.8013 91.108 62.5223 87.3087 63.9644 83.5739C65.4721 79.7746 67.0781 76.5549 68.7824 73.9148C70.9456 70.5019 73.5021 67.8295 76.4519 65.8977C79.4672 63.9659 82.4826 63 85.4979 63C87.4644 63 89.2343 63.7405 90.8075 65.2216C92.3808 66.7027 93.4296 68.7955 93.954 71.5L94.3473 71.6932L96.5105 64.1591H103L90.9059 107.722C90.0537 110.748 88.7099 113.936 86.8745 117.284C85.0391 120.697 82.9414 123.466 80.5816 125.591C78.5495 127.458 76.3536 128.811 73.9937 129.648C71.6994 130.549 69.5363 131 67.5042 131ZM73.4038 105.886C75.8291 105.886 78.1562 104.695 80.3849 102.312C82.6137 99.8655 84.6785 96.6136 86.5795 92.5568C87.8905 89.6591 89.0377 86.4394 90.0209 82.8977C91.0042 79.3561 91.4958 76.4583 91.4958 74.2045C91.4958 71.3712 90.9059 69.1818 89.7259 67.6364C88.546 66.0909 86.94 65.3182 84.9079 65.3182C82.8759 65.3182 80.9421 66.4129 79.1067 68.6023C77.2713 70.7917 75.698 73.303 74.387 76.1364C72.7483 79.7424 71.4045 83.5739 70.3556 87.6307C69.3724 91.6875 68.8808 95.4223 68.8808 98.8352C68.8808 100.767 69.2085 102.441 69.864 103.858C70.5851 105.21 71.765 105.886 73.4038 105.886Z" fill="#2F201D"/>
<path d="M859.37 518C858.256 518 857.175 517.776 856.127 517.327C855.079 516.942 854.293 516.462 853.769 515.885C853.179 515.179 852.721 514.41 852.393 513.577C852.131 512.679 852 511.878 852 511.173C852 509.058 852.59 507.295 853.769 505.885C854.948 504.346 856.455 503.577 858.289 503.577C859.141 503.577 859.927 503.833 860.647 504.346C861.565 504.987 862.023 506.013 862.023 507.423C862.023 509.603 861.008 511.141 858.977 512.038C858.322 512.359 857.863 512.647 857.601 512.904C857.405 513.16 857.306 513.577 857.306 514.154C857.306 514.603 857.503 514.987 857.896 515.308C858.289 515.564 858.813 515.692 859.468 515.692C862.613 515.692 865.364 513.994 867.723 510.596C870.146 507.135 872.079 502.744 873.52 497.423L875.977 488.577C876.501 486.718 876.763 484.603 876.763 482.231C876.763 480.244 876.337 478.609 875.486 477.327C874.699 475.981 873.422 475.308 871.653 475.308C869.098 475.308 866.511 476.718 863.89 479.538C861.335 482.359 859.304 485.532 857.798 489.058L855.734 488.385C857.437 484.282 859.73 480.692 862.613 477.615C865.561 474.538 868.836 473 872.439 473C875.256 473 877.353 473.962 878.728 475.885C880.104 477.744 880.89 480.019 881.087 482.712L881.48 482.904C883.511 479.827 885.705 477.423 888.064 475.692C890.487 473.897 893.01 473 895.63 473C896.744 473 897.825 473.224 898.873 473.673C899.921 474.058 900.707 474.538 901.231 475.115C901.821 475.821 902.247 476.622 902.509 477.519C902.836 478.353 903 479.122 903 479.827C903 481.942 902.41 483.705 901.231 485.115C900.052 486.654 898.545 487.423 896.711 487.423C895.859 487.423 895.073 487.167 894.353 486.654C893.435 485.949 892.977 484.923 892.977 483.577C892.977 481.654 893.927 480.244 895.827 479.346C896.547 479.026 897.039 478.673 897.301 478.288C897.563 477.904 897.694 477.423 897.694 476.846C897.694 476.397 897.497 476.045 897.104 475.788C896.711 475.468 896.187 475.308 895.532 475.308C892.453 475.308 889.734 477.006 887.376 480.404C885.083 483.801 883.118 488.192 881.48 493.577L879.023 502.423C878.499 504.154 878.237 506.269 878.237 508.769C878.237 510.756 878.63 512.423 879.416 513.769C880.268 515.051 881.578 515.692 883.347 515.692C885.902 515.692 888.457 514.282 891.012 511.462C893.632 508.641 895.696 505.468 897.202 501.942L899.266 502.615C897.563 506.718 895.237 510.308 892.289 513.385C889.407 516.462 886.164 518 882.561 518C879.744 518 877.647 517.071 876.272 515.212C874.896 513.288 874.11 510.981 873.913 508.288L873.52 508.096C871.489 511.173 869.262 513.609 866.838 515.404C864.48 517.135 861.99 518 859.37 518Z" fill="#2F201D"/>
<path d="M852.409 808C850.199 808 848.412 807.258 847.047 805.773C845.682 804.289 845 802.708 845 801.03C845 799.287 845.487 797.835 846.462 796.673C847.437 795.576 848.607 795.028 849.972 795.028C851.012 795.028 851.824 795.318 852.409 795.899C852.929 796.48 853.189 797.254 853.189 798.222C853.189 798.868 853.059 799.449 852.799 799.965C852.474 800.546 852.084 800.998 851.629 801.32C850.589 801.837 850.069 802.546 850.069 803.45C850.069 804.095 850.329 804.612 850.849 804.999C851.304 805.451 851.954 805.677 852.799 805.677C855.138 805.677 857.348 804.547 859.428 802.288C861.572 800.094 863.555 795.673 865.374 789.026L877.852 743.526H867.909L868.494 740.815H878.632L879.022 739.556C880.582 734.587 882.206 730.553 883.896 727.455C885.651 724.293 887.861 721.776 890.525 719.904C893.255 717.968 896.277 717 899.591 717C901.801 717 903.588 717.742 904.953 719.227C906.318 720.711 907 722.292 907 723.97C907 725.713 906.513 727.165 905.538 728.327C904.563 729.424 903.393 729.972 902.028 729.972C900.988 729.972 900.176 729.682 899.591 729.101C899.071 728.52 898.811 727.746 898.811 726.778C898.811 726.132 898.941 725.551 899.201 725.035C899.526 724.454 899.916 724.002 900.371 723.68C901.411 723.163 901.931 722.454 901.931 721.55C901.931 720.905 901.671 720.388 901.151 720.001C900.696 719.549 900.046 719.323 899.201 719.323C896.862 719.323 894.652 720.453 892.572 722.712C890.493 724.906 888.51 729.327 886.626 735.974L885.261 740.815H896.179L895.594 743.526H884.481L872.978 785.444C871.678 790.026 870.053 794.06 868.104 797.545C866.349 800.707 864.107 803.224 861.377 805.096C858.713 807.032 855.723 808 852.409 808Z" fill="#2F201D"/>
</svg>
