<svg width="773" height="97" viewBox="0 0 773 97" fill="none" xmlns="http://www.w3.org/2000/svg">
<mask id="path-1-outside-1_667_13" maskUnits="userSpaceOnUse" x="0.304016" y="0.919922" width="773" height="96" fill="black">
<rect fill="white" x="0.304016" y="0.919922" width="773" height="96"/>
<path d="M34.544 75.1519C32.816 75.1519 31.344 74.3839 30.128 72.8479C28.976 71.3119 28.4 69.0079 28.4 65.9359C28.4 64.5279 28.592 62.8639 28.976 60.9439C29.36 58.9599 29.808 57.3599 30.32 56.1439L36.464 41.8399C36.784 41.1359 37.104 40.2079 37.424 39.0559C37.808 37.9039 38 36.9439 38 36.1759C38 35.2799 37.808 34.5439 37.424 33.9679C37.104 33.3919 36.592 33.1039 35.888 33.1039C32.048 33.1039 27.984 36.7199 23.696 43.9519C21.136 48.3039 18.832 52.6239 16.784 56.9119C14.8 61.1999 13.392 64.7839 12.56 67.6639L10.64 73.9999H4.30402L21.776 10.0639C21.904 9.55192 21.968 9.23192 21.968 9.10392C21.968 8.33592 21.392 7.95192 20.24 7.95192H11.792L12.464 5.64792H29.456L16.784 51.6319L17.168 51.9199L18.512 49.5199C21.328 44.0799 24.176 39.5039 27.056 35.7919C30 32.0799 33.232 30.2239 36.752 30.2239C38.672 30.2239 40.176 31.0239 41.264 32.6239C42.416 34.1599 42.992 36.4319 42.992 39.4399C42.992 40.8479 42.8 42.5759 42.416 44.6239C42.032 46.6079 41.584 48.1439 41.072 49.2319L34.928 63.5359C34.608 64.2399 34.256 65.1679 33.872 66.3199C33.552 67.4719 33.392 68.4319 33.392 69.1999C33.392 70.0959 33.584 70.8319 33.968 71.4079C34.352 71.9839 34.896 72.2719 35.6 72.2719C37.776 72.2719 39.856 70.6079 41.84 67.2799C43.824 63.9519 45.52 60.3679 46.928 56.5279L48.848 57.1039C47.12 62.2879 45.008 66.6079 42.512 70.0639C40.08 73.4559 37.424 75.1519 34.544 75.1519Z"/>
<path d="M66.293 75.1519C64.245 75.1519 62.421 74.3519 60.821 72.7519C59.285 71.0879 58.517 68.8159 58.517 65.9359C58.517 64.5279 58.709 62.8319 59.093 60.8479C59.477 58.7999 59.925 57.2319 60.437 56.1439L66.581 41.8399C66.901 41.1359 67.221 40.2079 67.541 39.0559C67.925 37.9039 68.117 36.9439 68.117 36.1759C68.117 35.2799 67.925 34.5439 67.541 33.9679C67.157 33.3919 66.613 33.1039 65.909 33.1039C63.733 33.1039 61.653 34.7679 59.669 38.0959C57.685 41.4239 55.989 45.0079 54.581 48.8479L52.661 48.2719C54.389 43.0879 56.469 38.7999 58.901 35.4079C61.397 31.9519 64.085 30.2239 66.965 30.2239C68.693 30.2239 70.133 30.9919 71.285 32.5279C72.501 34.0639 73.109 36.3679 73.109 39.4399C73.109 40.8479 72.917 42.5439 72.533 44.5279C72.149 46.4479 71.701 48.0159 71.189 49.2319L65.045 63.5359C64.725 64.2399 64.373 65.1679 63.989 66.3199C63.669 67.4719 63.509 68.4319 63.509 69.1999C63.509 70.4799 63.797 71.4079 64.373 71.9839C64.949 72.5599 65.973 72.8479 67.445 72.8479C71.413 72.8479 75.061 71.1519 78.389 67.7599C81.717 64.3679 84.341 60.3999 86.261 55.8559C88.181 51.2479 89.141 47.3759 89.141 44.2399C89.141 43.0239 88.853 42.1599 88.277 41.6479C87.765 41.1359 87.093 40.7839 86.261 40.5919C85.045 40.3359 83.861 39.7279 82.709 38.7679C81.621 37.8079 81.077 36.5599 81.077 35.0239C81.077 33.5519 81.493 32.3999 82.325 31.5679C83.221 30.6719 84.373 30.2239 85.781 30.2239C88.149 30.2239 89.877 31.3119 90.965 33.4879C92.053 35.5999 92.597 38.0959 92.597 40.9759C92.597 44.3039 91.605 48.7199 89.621 54.2239C87.701 59.6639 84.757 64.5279 80.789 68.8159C76.821 73.0399 71.989 75.1519 66.293 75.1519Z"/>
<path d="M130.87 75.1519C129.142 75.1519 127.67 74.3839 126.454 72.8479C125.302 71.3119 124.726 69.0079 124.726 65.9359C124.726 64.5279 124.918 62.8639 125.302 60.9439C125.686 58.9599 126.134 57.3599 126.646 56.1439L132.79 41.8399C133.11 41.1359 133.43 40.2079 133.75 39.0559C134.134 37.9039 134.326 36.9439 134.326 36.1759C134.326 35.2799 134.134 34.5439 133.75 33.9679C133.43 33.3919 132.918 33.1039 132.214 33.1039C128.374 33.1039 124.31 36.7199 120.022 43.9519C117.462 48.3039 115.158 52.6239 113.11 56.9119C111.126 61.1999 109.718 64.7839 108.886 67.6639L106.966 73.9999H100.63L108.694 44.2399C109.654 40.3999 110.134 37.6799 110.134 36.0799C110.134 35.1839 110.006 34.5439 109.75 34.1599C109.494 33.7119 109.014 33.4879 108.31 33.4879C106.518 33.4879 104.694 34.9919 102.838 37.9999C101.046 40.9439 99.4143 44.5599 97.9423 48.8479L96.0223 48.2719C100.246 36.2399 104.95 30.2239 110.134 30.2239C113.846 30.2239 115.702 33.4879 115.702 40.0159C115.702 41.2959 115.382 43.2799 114.742 45.9679C114.166 48.5919 113.654 50.4799 113.206 51.6319L113.494 51.9199L114.838 49.5199C117.654 44.0799 120.502 39.5039 123.382 35.7919C126.326 32.0799 129.558 30.2239 133.078 30.2239C134.998 30.2239 136.502 31.0239 137.59 32.6239C138.742 34.1599 139.318 36.4319 139.318 39.4399C139.318 40.8479 139.126 42.5759 138.742 44.6239C138.358 46.6079 137.91 48.1439 137.398 49.2319L131.254 63.5359C130.934 64.2399 130.582 65.1679 130.198 66.3199C129.878 67.4719 129.718 68.4319 129.718 69.1999C129.718 70.0959 129.91 70.8319 130.294 71.4079C130.678 71.9839 131.222 72.2719 131.926 72.2719C134.102 72.2719 136.182 70.6079 138.166 67.2799C140.15 63.9519 141.846 60.3679 143.254 56.5279L145.174 57.1039C143.446 62.2879 141.334 66.6079 138.838 70.0639C136.406 73.4559 133.75 75.1519 130.87 75.1519Z"/>
<path d="M206.352 75.1519C204.624 75.1519 203.152 74.3839 201.936 72.8479C200.784 71.3119 200.208 69.0079 200.208 65.9359C200.208 64.5279 200.4 62.8639 200.784 60.9439C201.168 58.9599 201.616 57.3599 202.128 56.1439L208.272 41.8399C208.592 41.1359 208.912 40.2079 209.232 39.0559C209.616 37.9039 209.808 36.9439 209.808 36.1759C209.808 35.2799 209.616 34.5439 209.232 33.9679C208.912 33.3919 208.4 33.1039 207.696 33.1039C203.856 33.1039 199.792 36.7199 195.504 43.9519C192.944 48.3039 190.64 52.6239 188.592 56.9119C186.608 61.1999 185.2 64.7839 184.368 67.6639L182.448 73.9999H176.112L184.08 44.3359C184.208 43.8879 184.496 42.8639 184.944 41.2639C185.456 39.5999 185.712 38.1279 185.712 36.8479C185.712 34.3519 184.688 33.1039 182.64 33.1039C180.976 33.1039 178.704 35.2479 175.824 39.5359C172.944 43.8239 170.128 48.7839 167.376 54.4159C164.688 60.0479 162.864 64.4639 161.904 67.6639L159.984 73.9999H153.648L161.712 44.3359C162.672 40.4959 163.152 37.7759 163.152 36.1759C163.152 35.2799 163.024 34.6079 162.768 34.1599C162.512 33.7119 162.032 33.4879 161.328 33.4879C158.064 33.4879 154.608 38.6079 150.96 48.8479L149.04 48.2719C153.264 36.2399 157.936 30.2239 163.056 30.2239C166.832 30.2239 168.72 33.5199 168.72 40.1119C168.72 41.1999 168.432 43.0879 167.856 45.7759C167.28 48.4639 166.704 50.4159 166.128 51.6319L166.512 51.9199L167.664 49.8079C170.544 44.3039 173.328 39.6639 176.016 35.8879C178.768 32.1119 181.392 30.2239 183.888 30.2239C188.816 30.2239 191.28 33.2639 191.28 39.3439C191.28 40.6879 190.96 42.6399 190.32 45.1999C189.744 47.7599 189.2 49.9039 188.688 51.6319L188.976 51.9199L190.32 49.5199C193.136 44.0799 195.984 39.5039 198.864 35.7919C201.808 32.0799 205.04 30.2239 208.56 30.2239C210.48 30.2239 211.984 31.0239 213.072 32.6239C214.224 34.1599 214.8 36.4319 214.8 39.4399C214.8 40.8479 214.608 42.5759 214.224 44.6239C213.84 46.6079 213.392 48.1439 212.88 49.2319L206.736 63.5359C206.416 64.2399 206.064 65.1679 205.68 66.3199C205.36 67.4719 205.2 68.4319 205.2 69.1999C205.2 70.0959 205.392 70.8319 205.776 71.4079C206.16 71.9839 206.704 72.2719 207.408 72.2719C209.584 72.2719 211.664 70.6079 213.648 67.2799C215.632 63.9519 217.328 60.3679 218.736 56.5279L220.656 57.1039C218.928 62.2879 216.816 66.6079 214.32 70.0639C211.888 73.4559 209.232 75.1519 206.352 75.1519Z"/>
<path d="M251.37 41.5519V37.7119H332.394V41.5519H251.37ZM251.37 59.7919V55.9519H332.394V59.7919H251.37Z"/>
<path d="M373.165 93.0079V3.91992H377.389V93.0079H373.165Z"/>
<path d="M384.511 70.9279H391.807C393.535 70.9279 394.623 70.0639 395.071 68.3359L410.527 11.3119C410.655 10.7999 410.719 10.4159 410.719 10.1599C410.719 9.19992 410.047 8.71992 408.703 8.71992H401.407L402.175 5.64792H455.167L450.751 27.5359H448.351C448.415 27.2799 448.479 26.7679 448.543 25.9999C448.607 25.1679 448.639 24.1439 448.639 22.9279C448.639 17.5519 447.775 13.8399 446.047 11.7919C444.319 9.74392 441.727 8.71992 438.271 8.71992H422.527C420.799 8.71992 419.711 9.58392 419.263 11.3119L412.255 37.1359H422.623C425.119 37.1359 427.135 36.4639 428.671 35.1199C430.207 33.7119 431.327 32.0799 432.031 30.2239C432.799 28.3679 433.535 26.1279 434.239 23.5039H436.639L428.383 54.6079H425.983C426.623 51.7919 426.943 49.3919 426.943 47.4079C426.943 45.1679 426.495 43.4079 425.599 42.1279C424.767 40.8479 423.295 40.2079 421.183 40.2079H411.487L403.807 68.3359C403.679 68.8479 403.615 69.1999 403.615 69.3919C403.615 70.4159 404.287 70.9279 405.631 70.9279H423.487C425.151 70.9279 427.103 70.5439 429.343 69.7759C431.583 68.9439 433.599 67.6639 435.391 65.9359C437.183 64.1439 438.815 61.9679 440.287 59.4079C441.823 56.7839 443.039 54.4159 443.935 52.3039C444.831 50.1919 445.375 48.8479 445.567 48.2719H447.871L439.807 73.9999H383.743L384.511 70.9279Z"/>
<path d="M488.305 75.1519C486.577 75.1519 485.105 74.3839 483.889 72.8479C482.737 71.3119 482.161 69.0079 482.161 65.9359C482.161 64.5279 482.353 62.8639 482.737 60.9439C483.121 58.9599 483.569 57.3599 484.081 56.1439L490.225 41.8399C490.545 41.1359 490.865 40.2079 491.185 39.0559C491.569 37.9039 491.761 36.9439 491.761 36.1759C491.761 35.2799 491.569 34.5439 491.185 33.9679C490.865 33.3919 490.353 33.1039 489.649 33.1039C485.809 33.1039 481.745 36.7199 477.457 43.9519C474.897 48.3039 472.593 52.6239 470.545 56.9119C468.561 61.1999 467.153 64.7839 466.321 67.6639L464.401 73.9999H458.065L466.129 44.2399C467.089 40.3999 467.569 37.6799 467.569 36.0799C467.569 35.1839 467.441 34.5439 467.185 34.1599C466.929 33.7119 466.449 33.4879 465.745 33.4879C463.953 33.4879 462.129 34.9919 460.273 37.9999C458.481 40.9439 456.849 44.5599 455.377 48.8479L453.457 48.2719C457.681 36.2399 462.385 30.2239 467.569 30.2239C471.281 30.2239 473.137 33.4879 473.137 40.0159C473.137 41.2959 472.817 43.2799 472.177 45.9679C471.601 48.5919 471.089 50.4799 470.641 51.6319L470.929 51.9199L472.273 49.5199C475.089 44.0799 477.937 39.5039 480.817 35.7919C483.761 32.0799 486.993 30.2239 490.513 30.2239C492.433 30.2239 493.937 31.0239 495.025 32.6239C496.177 34.1599 496.753 36.4319 496.753 39.4399C496.753 40.8479 496.561 42.5759 496.177 44.6239C495.793 46.6079 495.345 48.1439 494.833 49.2319L488.689 63.5359C488.369 64.2399 488.017 65.1679 487.633 66.3199C487.313 67.4719 487.153 68.4319 487.153 69.1999C487.153 70.0959 487.345 70.8319 487.729 71.4079C488.113 71.9839 488.657 72.2719 489.361 72.2719C491.537 72.2719 493.617 70.6079 495.601 67.2799C497.585 63.9519 499.281 60.3679 500.689 56.5279L502.609 57.1039C500.881 62.2879 498.769 66.6079 496.273 70.0639C493.841 73.4559 491.185 75.1519 488.305 75.1519Z"/>
<path d="M536.069 50.5759V47.1199H584.069V50.5759H536.069Z"/>
<path d="M610.41 70.9279H617.706C619.434 70.9279 620.522 70.0639 620.97 68.3359L636.426 11.3119C636.554 10.7999 636.618 10.4159 636.618 10.1599C636.618 9.19992 635.946 8.71992 634.602 8.71992H627.306L628.074 5.64792H681.066L676.65 27.5359H674.25C674.314 27.2799 674.379 26.7679 674.443 25.9999C674.507 25.1679 674.538 24.1439 674.538 22.9279C674.538 17.5519 673.674 13.8399 671.946 11.7919C670.218 9.74392 667.626 8.71992 664.17 8.71992H648.426C646.698 8.71992 645.61 9.58392 645.162 11.3119L638.154 37.1359H648.522C651.018 37.1359 653.034 36.4639 654.57 35.1199C656.106 33.7119 657.226 32.0799 657.93 30.2239C658.698 28.3679 659.434 26.1279 660.138 23.5039H662.538L654.282 54.6079H651.883C652.523 51.7919 652.842 49.3919 652.842 47.4079C652.842 45.1679 652.394 43.4079 651.498 42.1279C650.666 40.8479 649.194 40.2079 647.082 40.2079H637.386L629.706 68.3359C629.578 68.8479 629.514 69.1999 629.514 69.3919C629.514 70.4159 630.186 70.9279 631.53 70.9279H649.386C651.05 70.9279 653.002 70.5439 655.242 69.7759C657.482 68.9439 659.498 67.6639 661.29 65.9359C663.082 64.1439 664.714 61.9679 666.186 59.4079C667.722 56.7839 668.938 54.4159 669.834 52.3039C670.73 50.1919 671.274 48.8479 671.466 48.2719H673.771L665.706 73.9999H609.642L610.41 70.9279Z"/>
<path d="M736.669 75.1519C734.941 75.1519 733.469 74.3839 732.253 72.8479C731.101 71.3119 730.525 69.0079 730.525 65.9359C730.525 64.5279 730.717 62.8639 731.101 60.9439C731.485 58.9599 731.933 57.3599 732.445 56.1439L738.589 41.8399C738.909 41.1359 739.229 40.2079 739.549 39.0559C739.933 37.9039 740.125 36.9439 740.125 36.1759C740.125 35.2799 739.933 34.5439 739.549 33.9679C739.229 33.3919 738.717 33.1039 738.013 33.1039C734.173 33.1039 730.109 36.7199 725.821 43.9519C723.261 48.3039 720.957 52.6239 718.909 56.9119C716.925 61.1999 715.517 64.7839 714.685 67.6639L712.765 73.9999H706.429L714.397 44.3359C714.525 43.8879 714.813 42.8639 715.261 41.2639C715.773 39.5999 716.029 38.1279 716.029 36.8479C716.029 34.3519 715.005 33.1039 712.957 33.1039C711.293 33.1039 709.021 35.2479 706.141 39.5359C703.261 43.8239 700.445 48.7839 697.693 54.4159C695.005 60.0479 693.181 64.4639 692.221 67.6639L690.301 73.9999H683.965L692.029 44.3359C692.989 40.4959 693.469 37.7759 693.469 36.1759C693.469 35.2799 693.341 34.6079 693.085 34.1599C692.829 33.7119 692.349 33.4879 691.645 33.4879C688.381 33.4879 684.925 38.6079 681.277 48.8479L679.357 48.2719C683.581 36.2399 688.253 30.2239 693.373 30.2239C697.149 30.2239 699.037 33.5199 699.037 40.1119C699.037 41.1999 698.749 43.0879 698.173 45.7759C697.597 48.4639 697.021 50.4159 696.445 51.6319L696.829 51.9199L697.981 49.8079C700.861 44.3039 703.645 39.6639 706.333 35.8879C709.085 32.1119 711.709 30.2239 714.205 30.2239C719.133 30.2239 721.597 33.2639 721.597 39.3439C721.597 40.6879 721.277 42.6399 720.637 45.1999C720.061 47.7599 719.517 49.9039 719.005 51.6319L719.293 51.9199L720.637 49.5199C723.453 44.0799 726.301 39.5039 729.181 35.7919C732.125 32.0799 735.357 30.2239 738.877 30.2239C740.797 30.2239 742.301 31.0239 743.389 32.6239C744.541 34.1599 745.117 36.4319 745.117 39.4399C745.117 40.8479 744.925 42.5759 744.541 44.6239C744.157 46.6079 743.709 48.1439 743.197 49.2319L737.053 63.5359C736.733 64.2399 736.381 65.1679 735.997 66.3199C735.677 67.4719 735.517 68.4319 735.517 69.1999C735.517 70.0959 735.709 70.8319 736.093 71.4079C736.477 71.9839 737.021 72.2719 737.725 72.2719C739.901 72.2719 741.981 70.6079 743.965 67.2799C745.949 63.9519 747.645 60.3679 749.053 56.5279L750.973 57.1039C749.245 62.2879 747.133 66.6079 744.637 70.0639C742.205 73.4559 739.549 75.1519 736.669 75.1519Z"/>
<path d="M765.149 93.0079V3.91992H769.373V93.0079H765.149Z"/>
</mask>
<path d="M34.544 75.1519C32.816 75.1519 31.344 74.3839 30.128 72.8479C28.976 71.3119 28.4 69.0079 28.4 65.9359C28.4 64.5279 28.592 62.8639 28.976 60.9439C29.36 58.9599 29.808 57.3599 30.32 56.1439L36.464 41.8399C36.784 41.1359 37.104 40.2079 37.424 39.0559C37.808 37.9039 38 36.9439 38 36.1759C38 35.2799 37.808 34.5439 37.424 33.9679C37.104 33.3919 36.592 33.1039 35.888 33.1039C32.048 33.1039 27.984 36.7199 23.696 43.9519C21.136 48.3039 18.832 52.6239 16.784 56.9119C14.8 61.1999 13.392 64.7839 12.56 67.6639L10.64 73.9999H4.30402L21.776 10.0639C21.904 9.55192 21.968 9.23192 21.968 9.10392C21.968 8.33592 21.392 7.95192 20.24 7.95192H11.792L12.464 5.64792H29.456L16.784 51.6319L17.168 51.9199L18.512 49.5199C21.328 44.0799 24.176 39.5039 27.056 35.7919C30 32.0799 33.232 30.2239 36.752 30.2239C38.672 30.2239 40.176 31.0239 41.264 32.6239C42.416 34.1599 42.992 36.4319 42.992 39.4399C42.992 40.8479 42.8 42.5759 42.416 44.6239C42.032 46.6079 41.584 48.1439 41.072 49.2319L34.928 63.5359C34.608 64.2399 34.256 65.1679 33.872 66.3199C33.552 67.4719 33.392 68.4319 33.392 69.1999C33.392 70.0959 33.584 70.8319 33.968 71.4079C34.352 71.9839 34.896 72.2719 35.6 72.2719C37.776 72.2719 39.856 70.6079 41.84 67.2799C43.824 63.9519 45.52 60.3679 46.928 56.5279L48.848 57.1039C47.12 62.2879 45.008 66.6079 42.512 70.0639C40.08 73.4559 37.424 75.1519 34.544 75.1519Z" fill="#EC563B"/>
<path d="M66.293 75.1519C64.245 75.1519 62.421 74.3519 60.821 72.7519C59.285 71.0879 58.517 68.8159 58.517 65.9359C58.517 64.5279 58.709 62.8319 59.093 60.8479C59.477 58.7999 59.925 57.2319 60.437 56.1439L66.581 41.8399C66.901 41.1359 67.221 40.2079 67.541 39.0559C67.925 37.9039 68.117 36.9439 68.117 36.1759C68.117 35.2799 67.925 34.5439 67.541 33.9679C67.157 33.3919 66.613 33.1039 65.909 33.1039C63.733 33.1039 61.653 34.7679 59.669 38.0959C57.685 41.4239 55.989 45.0079 54.581 48.8479L52.661 48.2719C54.389 43.0879 56.469 38.7999 58.901 35.4079C61.397 31.9519 64.085 30.2239 66.965 30.2239C68.693 30.2239 70.133 30.9919 71.285 32.5279C72.501 34.0639 73.109 36.3679 73.109 39.4399C73.109 40.8479 72.917 42.5439 72.533 44.5279C72.149 46.4479 71.701 48.0159 71.189 49.2319L65.045 63.5359C64.725 64.2399 64.373 65.1679 63.989 66.3199C63.669 67.4719 63.509 68.4319 63.509 69.1999C63.509 70.4799 63.797 71.4079 64.373 71.9839C64.949 72.5599 65.973 72.8479 67.445 72.8479C71.413 72.8479 75.061 71.1519 78.389 67.7599C81.717 64.3679 84.341 60.3999 86.261 55.8559C88.181 51.2479 89.141 47.3759 89.141 44.2399C89.141 43.0239 88.853 42.1599 88.277 41.6479C87.765 41.1359 87.093 40.7839 86.261 40.5919C85.045 40.3359 83.861 39.7279 82.709 38.7679C81.621 37.8079 81.077 36.5599 81.077 35.0239C81.077 33.5519 81.493 32.3999 82.325 31.5679C83.221 30.6719 84.373 30.2239 85.781 30.2239C88.149 30.2239 89.877 31.3119 90.965 33.4879C92.053 35.5999 92.597 38.0959 92.597 40.9759C92.597 44.3039 91.605 48.7199 89.621 54.2239C87.701 59.6639 84.757 64.5279 80.789 68.8159C76.821 73.0399 71.989 75.1519 66.293 75.1519Z" fill="#EC563B"/>
<path d="M130.87 75.1519C129.142 75.1519 127.67 74.3839 126.454 72.8479C125.302 71.3119 124.726 69.0079 124.726 65.9359C124.726 64.5279 124.918 62.8639 125.302 60.9439C125.686 58.9599 126.134 57.3599 126.646 56.1439L132.79 41.8399C133.11 41.1359 133.43 40.2079 133.75 39.0559C134.134 37.9039 134.326 36.9439 134.326 36.1759C134.326 35.2799 134.134 34.5439 133.75 33.9679C133.43 33.3919 132.918 33.1039 132.214 33.1039C128.374 33.1039 124.31 36.7199 120.022 43.9519C117.462 48.3039 115.158 52.6239 113.11 56.9119C111.126 61.1999 109.718 64.7839 108.886 67.6639L106.966 73.9999H100.63L108.694 44.2399C109.654 40.3999 110.134 37.6799 110.134 36.0799C110.134 35.1839 110.006 34.5439 109.75 34.1599C109.494 33.7119 109.014 33.4879 108.31 33.4879C106.518 33.4879 104.694 34.9919 102.838 37.9999C101.046 40.9439 99.4143 44.5599 97.9423 48.8479L96.0223 48.2719C100.246 36.2399 104.95 30.2239 110.134 30.2239C113.846 30.2239 115.702 33.4879 115.702 40.0159C115.702 41.2959 115.382 43.2799 114.742 45.9679C114.166 48.5919 113.654 50.4799 113.206 51.6319L113.494 51.9199L114.838 49.5199C117.654 44.0799 120.502 39.5039 123.382 35.7919C126.326 32.0799 129.558 30.2239 133.078 30.2239C134.998 30.2239 136.502 31.0239 137.59 32.6239C138.742 34.1599 139.318 36.4319 139.318 39.4399C139.318 40.8479 139.126 42.5759 138.742 44.6239C138.358 46.6079 137.91 48.1439 137.398 49.2319L131.254 63.5359C130.934 64.2399 130.582 65.1679 130.198 66.3199C129.878 67.4719 129.718 68.4319 129.718 69.1999C129.718 70.0959 129.91 70.8319 130.294 71.4079C130.678 71.9839 131.222 72.2719 131.926 72.2719C134.102 72.2719 136.182 70.6079 138.166 67.2799C140.15 63.9519 141.846 60.3679 143.254 56.5279L145.174 57.1039C143.446 62.2879 141.334 66.6079 138.838 70.0639C136.406 73.4559 133.75 75.1519 130.87 75.1519Z" fill="#EC563B"/>
<path d="M206.352 75.1519C204.624 75.1519 203.152 74.3839 201.936 72.8479C200.784 71.3119 200.208 69.0079 200.208 65.9359C200.208 64.5279 200.4 62.8639 200.784 60.9439C201.168 58.9599 201.616 57.3599 202.128 56.1439L208.272 41.8399C208.592 41.1359 208.912 40.2079 209.232 39.0559C209.616 37.9039 209.808 36.9439 209.808 36.1759C209.808 35.2799 209.616 34.5439 209.232 33.9679C208.912 33.3919 208.4 33.1039 207.696 33.1039C203.856 33.1039 199.792 36.7199 195.504 43.9519C192.944 48.3039 190.64 52.6239 188.592 56.9119C186.608 61.1999 185.2 64.7839 184.368 67.6639L182.448 73.9999H176.112L184.08 44.3359C184.208 43.8879 184.496 42.8639 184.944 41.2639C185.456 39.5999 185.712 38.1279 185.712 36.8479C185.712 34.3519 184.688 33.1039 182.64 33.1039C180.976 33.1039 178.704 35.2479 175.824 39.5359C172.944 43.8239 170.128 48.7839 167.376 54.4159C164.688 60.0479 162.864 64.4639 161.904 67.6639L159.984 73.9999H153.648L161.712 44.3359C162.672 40.4959 163.152 37.7759 163.152 36.1759C163.152 35.2799 163.024 34.6079 162.768 34.1599C162.512 33.7119 162.032 33.4879 161.328 33.4879C158.064 33.4879 154.608 38.6079 150.96 48.8479L149.04 48.2719C153.264 36.2399 157.936 30.2239 163.056 30.2239C166.832 30.2239 168.72 33.5199 168.72 40.1119C168.72 41.1999 168.432 43.0879 167.856 45.7759C167.28 48.4639 166.704 50.4159 166.128 51.6319L166.512 51.9199L167.664 49.8079C170.544 44.3039 173.328 39.6639 176.016 35.8879C178.768 32.1119 181.392 30.2239 183.888 30.2239C188.816 30.2239 191.28 33.2639 191.28 39.3439C191.28 40.6879 190.96 42.6399 190.32 45.1999C189.744 47.7599 189.2 49.9039 188.688 51.6319L188.976 51.9199L190.32 49.5199C193.136 44.0799 195.984 39.5039 198.864 35.7919C201.808 32.0799 205.04 30.2239 208.56 30.2239C210.48 30.2239 211.984 31.0239 213.072 32.6239C214.224 34.1599 214.8 36.4319 214.8 39.4399C214.8 40.8479 214.608 42.5759 214.224 44.6239C213.84 46.6079 213.392 48.1439 212.88 49.2319L206.736 63.5359C206.416 64.2399 206.064 65.1679 205.68 66.3199C205.36 67.4719 205.2 68.4319 205.2 69.1999C205.2 70.0959 205.392 70.8319 205.776 71.4079C206.16 71.9839 206.704 72.2719 207.408 72.2719C209.584 72.2719 211.664 70.6079 213.648 67.2799C215.632 63.9519 217.328 60.3679 218.736 56.5279L220.656 57.1039C218.928 62.2879 216.816 66.6079 214.32 70.0639C211.888 73.4559 209.232 75.1519 206.352 75.1519Z" fill="#EC563B"/>
<path d="M251.37 41.5519V37.7119H332.394V41.5519H251.37ZM251.37 59.7919V55.9519H332.394V59.7919H251.37Z" fill="#EC563B"/>
<path d="M373.165 93.0079V3.91992H377.389V93.0079H373.165Z" fill="#EC563B"/>
<path d="M384.511 70.9279H391.807C393.535 70.9279 394.623 70.0639 395.071 68.3359L410.527 11.3119C410.655 10.7999 410.719 10.4159 410.719 10.1599C410.719 9.19992 410.047 8.71992 408.703 8.71992H401.407L402.175 5.64792H455.167L450.751 27.5359H448.351C448.415 27.2799 448.479 26.7679 448.543 25.9999C448.607 25.1679 448.639 24.1439 448.639 22.9279C448.639 17.5519 447.775 13.8399 446.047 11.7919C444.319 9.74392 441.727 8.71992 438.271 8.71992H422.527C420.799 8.71992 419.711 9.58392 419.263 11.3119L412.255 37.1359H422.623C425.119 37.1359 427.135 36.4639 428.671 35.1199C430.207 33.7119 431.327 32.0799 432.031 30.2239C432.799 28.3679 433.535 26.1279 434.239 23.5039H436.639L428.383 54.6079H425.983C426.623 51.7919 426.943 49.3919 426.943 47.4079C426.943 45.1679 426.495 43.4079 425.599 42.1279C424.767 40.8479 423.295 40.2079 421.183 40.2079H411.487L403.807 68.3359C403.679 68.8479 403.615 69.1999 403.615 69.3919C403.615 70.4159 404.287 70.9279 405.631 70.9279H423.487C425.151 70.9279 427.103 70.5439 429.343 69.7759C431.583 68.9439 433.599 67.6639 435.391 65.9359C437.183 64.1439 438.815 61.9679 440.287 59.4079C441.823 56.7839 443.039 54.4159 443.935 52.3039C444.831 50.1919 445.375 48.8479 445.567 48.2719H447.871L439.807 73.9999H383.743L384.511 70.9279Z" fill="#EC563B"/>
<path d="M488.305 75.1519C486.577 75.1519 485.105 74.3839 483.889 72.8479C482.737 71.3119 482.161 69.0079 482.161 65.9359C482.161 64.5279 482.353 62.8639 482.737 60.9439C483.121 58.9599 483.569 57.3599 484.081 56.1439L490.225 41.8399C490.545 41.1359 490.865 40.2079 491.185 39.0559C491.569 37.9039 491.761 36.9439 491.761 36.1759C491.761 35.2799 491.569 34.5439 491.185 33.9679C490.865 33.3919 490.353 33.1039 489.649 33.1039C485.809 33.1039 481.745 36.7199 477.457 43.9519C474.897 48.3039 472.593 52.6239 470.545 56.9119C468.561 61.1999 467.153 64.7839 466.321 67.6639L464.401 73.9999H458.065L466.129 44.2399C467.089 40.3999 467.569 37.6799 467.569 36.0799C467.569 35.1839 467.441 34.5439 467.185 34.1599C466.929 33.7119 466.449 33.4879 465.745 33.4879C463.953 33.4879 462.129 34.9919 460.273 37.9999C458.481 40.9439 456.849 44.5599 455.377 48.8479L453.457 48.2719C457.681 36.2399 462.385 30.2239 467.569 30.2239C471.281 30.2239 473.137 33.4879 473.137 40.0159C473.137 41.2959 472.817 43.2799 472.177 45.9679C471.601 48.5919 471.089 50.4799 470.641 51.6319L470.929 51.9199L472.273 49.5199C475.089 44.0799 477.937 39.5039 480.817 35.7919C483.761 32.0799 486.993 30.2239 490.513 30.2239C492.433 30.2239 493.937 31.0239 495.025 32.6239C496.177 34.1599 496.753 36.4319 496.753 39.4399C496.753 40.8479 496.561 42.5759 496.177 44.6239C495.793 46.6079 495.345 48.1439 494.833 49.2319L488.689 63.5359C488.369 64.2399 488.017 65.1679 487.633 66.3199C487.313 67.4719 487.153 68.4319 487.153 69.1999C487.153 70.0959 487.345 70.8319 487.729 71.4079C488.113 71.9839 488.657 72.2719 489.361 72.2719C491.537 72.2719 493.617 70.6079 495.601 67.2799C497.585 63.9519 499.281 60.3679 500.689 56.5279L502.609 57.1039C500.881 62.2879 498.769 66.6079 496.273 70.0639C493.841 73.4559 491.185 75.1519 488.305 75.1519Z" fill="#EC563B"/>
<path d="M536.069 50.5759V47.1199H584.069V50.5759H536.069Z" fill="#EC563B"/>
<path d="M610.41 70.9279H617.706C619.434 70.9279 620.522 70.0639 620.97 68.3359L636.426 11.3119C636.554 10.7999 636.618 10.4159 636.618 10.1599C636.618 9.19992 635.946 8.71992 634.602 8.71992H627.306L628.074 5.64792H681.066L676.65 27.5359H674.25C674.314 27.2799 674.379 26.7679 674.443 25.9999C674.507 25.1679 674.538 24.1439 674.538 22.9279C674.538 17.5519 673.674 13.8399 671.946 11.7919C670.218 9.74392 667.626 8.71992 664.17 8.71992H648.426C646.698 8.71992 645.61 9.58392 645.162 11.3119L638.154 37.1359H648.522C651.018 37.1359 653.034 36.4639 654.57 35.1199C656.106 33.7119 657.226 32.0799 657.93 30.2239C658.698 28.3679 659.434 26.1279 660.138 23.5039H662.538L654.282 54.6079H651.883C652.523 51.7919 652.842 49.3919 652.842 47.4079C652.842 45.1679 652.394 43.4079 651.498 42.1279C650.666 40.8479 649.194 40.2079 647.082 40.2079H637.386L629.706 68.3359C629.578 68.8479 629.514 69.1999 629.514 69.3919C629.514 70.4159 630.186 70.9279 631.53 70.9279H649.386C651.05 70.9279 653.002 70.5439 655.242 69.7759C657.482 68.9439 659.498 67.6639 661.29 65.9359C663.082 64.1439 664.714 61.9679 666.186 59.4079C667.722 56.7839 668.938 54.4159 669.834 52.3039C670.73 50.1919 671.274 48.8479 671.466 48.2719H673.771L665.706 73.9999H609.642L610.41 70.9279Z" fill="#EC563B"/>
<path d="M736.669 75.1519C734.941 75.1519 733.469 74.3839 732.253 72.8479C731.101 71.3119 730.525 69.0079 730.525 65.9359C730.525 64.5279 730.717 62.8639 731.101 60.9439C731.485 58.9599 731.933 57.3599 732.445 56.1439L738.589 41.8399C738.909 41.1359 739.229 40.2079 739.549 39.0559C739.933 37.9039 740.125 36.9439 740.125 36.1759C740.125 35.2799 739.933 34.5439 739.549 33.9679C739.229 33.3919 738.717 33.1039 738.013 33.1039C734.173 33.1039 730.109 36.7199 725.821 43.9519C723.261 48.3039 720.957 52.6239 718.909 56.9119C716.925 61.1999 715.517 64.7839 714.685 67.6639L712.765 73.9999H706.429L714.397 44.3359C714.525 43.8879 714.813 42.8639 715.261 41.2639C715.773 39.5999 716.029 38.1279 716.029 36.8479C716.029 34.3519 715.005 33.1039 712.957 33.1039C711.293 33.1039 709.021 35.2479 706.141 39.5359C703.261 43.8239 700.445 48.7839 697.693 54.4159C695.005 60.0479 693.181 64.4639 692.221 67.6639L690.301 73.9999H683.965L692.029 44.3359C692.989 40.4959 693.469 37.7759 693.469 36.1759C693.469 35.2799 693.341 34.6079 693.085 34.1599C692.829 33.7119 692.349 33.4879 691.645 33.4879C688.381 33.4879 684.925 38.6079 681.277 48.8479L679.357 48.2719C683.581 36.2399 688.253 30.2239 693.373 30.2239C697.149 30.2239 699.037 33.5199 699.037 40.1119C699.037 41.1999 698.749 43.0879 698.173 45.7759C697.597 48.4639 697.021 50.4159 696.445 51.6319L696.829 51.9199L697.981 49.8079C700.861 44.3039 703.645 39.6639 706.333 35.8879C709.085 32.1119 711.709 30.2239 714.205 30.2239C719.133 30.2239 721.597 33.2639 721.597 39.3439C721.597 40.6879 721.277 42.6399 720.637 45.1999C720.061 47.7599 719.517 49.9039 719.005 51.6319L719.293 51.9199L720.637 49.5199C723.453 44.0799 726.301 39.5039 729.181 35.7919C732.125 32.0799 735.357 30.2239 738.877 30.2239C740.797 30.2239 742.301 31.0239 743.389 32.6239C744.541 34.1599 745.117 36.4319 745.117 39.4399C745.117 40.8479 744.925 42.5759 744.541 44.6239C744.157 46.6079 743.709 48.1439 743.197 49.2319L737.053 63.5359C736.733 64.2399 736.381 65.1679 735.997 66.3199C735.677 67.4719 735.517 68.4319 735.517 69.1999C735.517 70.0959 735.709 70.8319 736.093 71.4079C736.477 71.9839 737.021 72.2719 737.725 72.2719C739.901 72.2719 741.981 70.6079 743.965 67.2799C745.949 63.9519 747.645 60.3679 749.053 56.5279L750.973 57.1039C749.245 62.2879 747.133 66.6079 744.637 70.0639C742.205 73.4559 739.549 75.1519 736.669 75.1519Z" fill="#EC563B"/>
<path d="M765.149 93.0079V3.91992H769.373V93.0079H765.149Z" fill="#EC563B"/>
<path d="M34.544 75.1519C32.816 75.1519 31.344 74.3839 30.128 72.8479C28.976 71.3119 28.4 69.0079 28.4 65.9359C28.4 64.5279 28.592 62.8639 28.976 60.9439C29.36 58.9599 29.808 57.3599 30.32 56.1439L36.464 41.8399C36.784 41.1359 37.104 40.2079 37.424 39.0559C37.808 37.9039 38 36.9439 38 36.1759C38 35.2799 37.808 34.5439 37.424 33.9679C37.104 33.3919 36.592 33.1039 35.888 33.1039C32.048 33.1039 27.984 36.7199 23.696 43.9519C21.136 48.3039 18.832 52.6239 16.784 56.9119C14.8 61.1999 13.392 64.7839 12.56 67.6639L10.64 73.9999H4.30402L21.776 10.0639C21.904 9.55192 21.968 9.23192 21.968 9.10392C21.968 8.33592 21.392 7.95192 20.24 7.95192H11.792L12.464 5.64792H29.456L16.784 51.6319L17.168 51.9199L18.512 49.5199C21.328 44.0799 24.176 39.5039 27.056 35.7919C30 32.0799 33.232 30.2239 36.752 30.2239C38.672 30.2239 40.176 31.0239 41.264 32.6239C42.416 34.1599 42.992 36.4319 42.992 39.4399C42.992 40.8479 42.8 42.5759 42.416 44.6239C42.032 46.6079 41.584 48.1439 41.072 49.2319L34.928 63.5359C34.608 64.2399 34.256 65.1679 33.872 66.3199C33.552 67.4719 33.392 68.4319 33.392 69.1999C33.392 70.0959 33.584 70.8319 33.968 71.4079C34.352 71.9839 34.896 72.2719 35.6 72.2719C37.776 72.2719 39.856 70.6079 41.84 67.2799C43.824 63.9519 45.52 60.3679 46.928 56.5279L48.848 57.1039C47.12 62.2879 45.008 66.6079 42.512 70.0639C40.08 73.4559 37.424 75.1519 34.544 75.1519Z" stroke="black" stroke-width="6" mask="url(#path-1-outside-1_667_13)"/>
<path d="M66.293 75.1519C64.245 75.1519 62.421 74.3519 60.821 72.7519C59.285 71.0879 58.517 68.8159 58.517 65.9359C58.517 64.5279 58.709 62.8319 59.093 60.8479C59.477 58.7999 59.925 57.2319 60.437 56.1439L66.581 41.8399C66.901 41.1359 67.221 40.2079 67.541 39.0559C67.925 37.9039 68.117 36.9439 68.117 36.1759C68.117 35.2799 67.925 34.5439 67.541 33.9679C67.157 33.3919 66.613 33.1039 65.909 33.1039C63.733 33.1039 61.653 34.7679 59.669 38.0959C57.685 41.4239 55.989 45.0079 54.581 48.8479L52.661 48.2719C54.389 43.0879 56.469 38.7999 58.901 35.4079C61.397 31.9519 64.085 30.2239 66.965 30.2239C68.693 30.2239 70.133 30.9919 71.285 32.5279C72.501 34.0639 73.109 36.3679 73.109 39.4399C73.109 40.8479 72.917 42.5439 72.533 44.5279C72.149 46.4479 71.701 48.0159 71.189 49.2319L65.045 63.5359C64.725 64.2399 64.373 65.1679 63.989 66.3199C63.669 67.4719 63.509 68.4319 63.509 69.1999C63.509 70.4799 63.797 71.4079 64.373 71.9839C64.949 72.5599 65.973 72.8479 67.445 72.8479C71.413 72.8479 75.061 71.1519 78.389 67.7599C81.717 64.3679 84.341 60.3999 86.261 55.8559C88.181 51.2479 89.141 47.3759 89.141 44.2399C89.141 43.0239 88.853 42.1599 88.277 41.6479C87.765 41.1359 87.093 40.7839 86.261 40.5919C85.045 40.3359 83.861 39.7279 82.709 38.7679C81.621 37.8079 81.077 36.5599 81.077 35.0239C81.077 33.5519 81.493 32.3999 82.325 31.5679C83.221 30.6719 84.373 30.2239 85.781 30.2239C88.149 30.2239 89.877 31.3119 90.965 33.4879C92.053 35.5999 92.597 38.0959 92.597 40.9759C92.597 44.3039 91.605 48.7199 89.621 54.2239C87.701 59.6639 84.757 64.5279 80.789 68.8159C76.821 73.0399 71.989 75.1519 66.293 75.1519Z" stroke="black" stroke-width="6" mask="url(#path-1-outside-1_667_13)"/>
<path d="M130.87 75.1519C129.142 75.1519 127.67 74.3839 126.454 72.8479C125.302 71.3119 124.726 69.0079 124.726 65.9359C124.726 64.5279 124.918 62.8639 125.302 60.9439C125.686 58.9599 126.134 57.3599 126.646 56.1439L132.79 41.8399C133.11 41.1359 133.43 40.2079 133.75 39.0559C134.134 37.9039 134.326 36.9439 134.326 36.1759C134.326 35.2799 134.134 34.5439 133.75 33.9679C133.43 33.3919 132.918 33.1039 132.214 33.1039C128.374 33.1039 124.31 36.7199 120.022 43.9519C117.462 48.3039 115.158 52.6239 113.11 56.9119C111.126 61.1999 109.718 64.7839 108.886 67.6639L106.966 73.9999H100.63L108.694 44.2399C109.654 40.3999 110.134 37.6799 110.134 36.0799C110.134 35.1839 110.006 34.5439 109.75 34.1599C109.494 33.7119 109.014 33.4879 108.31 33.4879C106.518 33.4879 104.694 34.9919 102.838 37.9999C101.046 40.9439 99.4143 44.5599 97.9423 48.8479L96.0223 48.2719C100.246 36.2399 104.95 30.2239 110.134 30.2239C113.846 30.2239 115.702 33.4879 115.702 40.0159C115.702 41.2959 115.382 43.2799 114.742 45.9679C114.166 48.5919 113.654 50.4799 113.206 51.6319L113.494 51.9199L114.838 49.5199C117.654 44.0799 120.502 39.5039 123.382 35.7919C126.326 32.0799 129.558 30.2239 133.078 30.2239C134.998 30.2239 136.502 31.0239 137.59 32.6239C138.742 34.1599 139.318 36.4319 139.318 39.4399C139.318 40.8479 139.126 42.5759 138.742 44.6239C138.358 46.6079 137.91 48.1439 137.398 49.2319L131.254 63.5359C130.934 64.2399 130.582 65.1679 130.198 66.3199C129.878 67.4719 129.718 68.4319 129.718 69.1999C129.718 70.0959 129.91 70.8319 130.294 71.4079C130.678 71.9839 131.222 72.2719 131.926 72.2719C134.102 72.2719 136.182 70.6079 138.166 67.2799C140.15 63.9519 141.846 60.3679 143.254 56.5279L145.174 57.1039C143.446 62.2879 141.334 66.6079 138.838 70.0639C136.406 73.4559 133.75 75.1519 130.87 75.1519Z" stroke="black" stroke-width="6" mask="url(#path-1-outside-1_667_13)"/>
<path d="M206.352 75.1519C204.624 75.1519 203.152 74.3839 201.936 72.8479C200.784 71.3119 200.208 69.0079 200.208 65.9359C200.208 64.5279 200.4 62.8639 200.784 60.9439C201.168 58.9599 201.616 57.3599 202.128 56.1439L208.272 41.8399C208.592 41.1359 208.912 40.2079 209.232 39.0559C209.616 37.9039 209.808 36.9439 209.808 36.1759C209.808 35.2799 209.616 34.5439 209.232 33.9679C208.912 33.3919 208.4 33.1039 207.696 33.1039C203.856 33.1039 199.792 36.7199 195.504 43.9519C192.944 48.3039 190.64 52.6239 188.592 56.9119C186.608 61.1999 185.2 64.7839 184.368 67.6639L182.448 73.9999H176.112L184.08 44.3359C184.208 43.8879 184.496 42.8639 184.944 41.2639C185.456 39.5999 185.712 38.1279 185.712 36.8479C185.712 34.3519 184.688 33.1039 182.64 33.1039C180.976 33.1039 178.704 35.2479 175.824 39.5359C172.944 43.8239 170.128 48.7839 167.376 54.4159C164.688 60.0479 162.864 64.4639 161.904 67.6639L159.984 73.9999H153.648L161.712 44.3359C162.672 40.4959 163.152 37.7759 163.152 36.1759C163.152 35.2799 163.024 34.6079 162.768 34.1599C162.512 33.7119 162.032 33.4879 161.328 33.4879C158.064 33.4879 154.608 38.6079 150.96 48.8479L149.04 48.2719C153.264 36.2399 157.936 30.2239 163.056 30.2239C166.832 30.2239 168.72 33.5199 168.72 40.1119C168.72 41.1999 168.432 43.0879 167.856 45.7759C167.28 48.4639 166.704 50.4159 166.128 51.6319L166.512 51.9199L167.664 49.8079C170.544 44.3039 173.328 39.6639 176.016 35.8879C178.768 32.1119 181.392 30.2239 183.888 30.2239C188.816 30.2239 191.28 33.2639 191.28 39.3439C191.28 40.6879 190.96 42.6399 190.32 45.1999C189.744 47.7599 189.2 49.9039 188.688 51.6319L188.976 51.9199L190.32 49.5199C193.136 44.0799 195.984 39.5039 198.864 35.7919C201.808 32.0799 205.04 30.2239 208.56 30.2239C210.48 30.2239 211.984 31.0239 213.072 32.6239C214.224 34.1599 214.8 36.4319 214.8 39.4399C214.8 40.8479 214.608 42.5759 214.224 44.6239C213.84 46.6079 213.392 48.1439 212.88 49.2319L206.736 63.5359C206.416 64.2399 206.064 65.1679 205.68 66.3199C205.36 67.4719 205.2 68.4319 205.2 69.1999C205.2 70.0959 205.392 70.8319 205.776 71.4079C206.16 71.9839 206.704 72.2719 207.408 72.2719C209.584 72.2719 211.664 70.6079 213.648 67.2799C215.632 63.9519 217.328 60.3679 218.736 56.5279L220.656 57.1039C218.928 62.2879 216.816 66.6079 214.32 70.0639C211.888 73.4559 209.232 75.1519 206.352 75.1519Z" stroke="black" stroke-width="6" mask="url(#path-1-outside-1_667_13)"/>
<path d="M251.37 41.5519V37.7119H332.394V41.5519H251.37ZM251.37 59.7919V55.9519H332.394V59.7919H251.37Z" stroke="black" stroke-width="6" mask="url(#path-1-outside-1_667_13)"/>
<path d="M373.165 93.0079V3.91992H377.389V93.0079H373.165Z" stroke="black" stroke-width="6" mask="url(#path-1-outside-1_667_13)"/>
<path d="M384.511 70.9279H391.807C393.535 70.9279 394.623 70.0639 395.071 68.3359L410.527 11.3119C410.655 10.7999 410.719 10.4159 410.719 10.1599C410.719 9.19992 410.047 8.71992 408.703 8.71992H401.407L402.175 5.64792H455.167L450.751 27.5359H448.351C448.415 27.2799 448.479 26.7679 448.543 25.9999C448.607 25.1679 448.639 24.1439 448.639 22.9279C448.639 17.5519 447.775 13.8399 446.047 11.7919C444.319 9.74392 441.727 8.71992 438.271 8.71992H422.527C420.799 8.71992 419.711 9.58392 419.263 11.3119L412.255 37.1359H422.623C425.119 37.1359 427.135 36.4639 428.671 35.1199C430.207 33.7119 431.327 32.0799 432.031 30.2239C432.799 28.3679 433.535 26.1279 434.239 23.5039H436.639L428.383 54.6079H425.983C426.623 51.7919 426.943 49.3919 426.943 47.4079C426.943 45.1679 426.495 43.4079 425.599 42.1279C424.767 40.8479 423.295 40.2079 421.183 40.2079H411.487L403.807 68.3359C403.679 68.8479 403.615 69.1999 403.615 69.3919C403.615 70.4159 404.287 70.9279 405.631 70.9279H423.487C425.151 70.9279 427.103 70.5439 429.343 69.7759C431.583 68.9439 433.599 67.6639 435.391 65.9359C437.183 64.1439 438.815 61.9679 440.287 59.4079C441.823 56.7839 443.039 54.4159 443.935 52.3039C444.831 50.1919 445.375 48.8479 445.567 48.2719H447.871L439.807 73.9999H383.743L384.511 70.9279Z" stroke="black" stroke-width="6" mask="url(#path-1-outside-1_667_13)"/>
<path d="M488.305 75.1519C486.577 75.1519 485.105 74.3839 483.889 72.8479C482.737 71.3119 482.161 69.0079 482.161 65.9359C482.161 64.5279 482.353 62.8639 482.737 60.9439C483.121 58.9599 483.569 57.3599 484.081 56.1439L490.225 41.8399C490.545 41.1359 490.865 40.2079 491.185 39.0559C491.569 37.9039 491.761 36.9439 491.761 36.1759C491.761 35.2799 491.569 34.5439 491.185 33.9679C490.865 33.3919 490.353 33.1039 489.649 33.1039C485.809 33.1039 481.745 36.7199 477.457 43.9519C474.897 48.3039 472.593 52.6239 470.545 56.9119C468.561 61.1999 467.153 64.7839 466.321 67.6639L464.401 73.9999H458.065L466.129 44.2399C467.089 40.3999 467.569 37.6799 467.569 36.0799C467.569 35.1839 467.441 34.5439 467.185 34.1599C466.929 33.7119 466.449 33.4879 465.745 33.4879C463.953 33.4879 462.129 34.9919 460.273 37.9999C458.481 40.9439 456.849 44.5599 455.377 48.8479L453.457 48.2719C457.681 36.2399 462.385 30.2239 467.569 30.2239C471.281 30.2239 473.137 33.4879 473.137 40.0159C473.137 41.2959 472.817 43.2799 472.177 45.9679C471.601 48.5919 471.089 50.4799 470.641 51.6319L470.929 51.9199L472.273 49.5199C475.089 44.0799 477.937 39.5039 480.817 35.7919C483.761 32.0799 486.993 30.2239 490.513 30.2239C492.433 30.2239 493.937 31.0239 495.025 32.6239C496.177 34.1599 496.753 36.4319 496.753 39.4399C496.753 40.8479 496.561 42.5759 496.177 44.6239C495.793 46.6079 495.345 48.1439 494.833 49.2319L488.689 63.5359C488.369 64.2399 488.017 65.1679 487.633 66.3199C487.313 67.4719 487.153 68.4319 487.153 69.1999C487.153 70.0959 487.345 70.8319 487.729 71.4079C488.113 71.9839 488.657 72.2719 489.361 72.2719C491.537 72.2719 493.617 70.6079 495.601 67.2799C497.585 63.9519 499.281 60.3679 500.689 56.5279L502.609 57.1039C500.881 62.2879 498.769 66.6079 496.273 70.0639C493.841 73.4559 491.185 75.1519 488.305 75.1519Z" stroke="black" stroke-width="6" mask="url(#path-1-outside-1_667_13)"/>
<path d="M536.069 50.5759V47.1199H584.069V50.5759H536.069Z" stroke="black" stroke-width="6" mask="url(#path-1-outside-1_667_13)"/>
<path d="M610.41 70.9279H617.706C619.434 70.9279 620.522 70.0639 620.97 68.3359L636.426 11.3119C636.554 10.7999 636.618 10.4159 636.618 10.1599C636.618 9.19992 635.946 8.71992 634.602 8.71992H627.306L628.074 5.64792H681.066L676.65 27.5359H674.25C674.314 27.2799 674.379 26.7679 674.443 25.9999C674.507 25.1679 674.538 24.1439 674.538 22.9279C674.538 17.5519 673.674 13.8399 671.946 11.7919C670.218 9.74392 667.626 8.71992 664.17 8.71992H648.426C646.698 8.71992 645.61 9.58392 645.162 11.3119L638.154 37.1359H648.522C651.018 37.1359 653.034 36.4639 654.57 35.1199C656.106 33.7119 657.226 32.0799 657.93 30.2239C658.698 28.3679 659.434 26.1279 660.138 23.5039H662.538L654.282 54.6079H651.883C652.523 51.7919 652.842 49.3919 652.842 47.4079C652.842 45.1679 652.394 43.4079 651.498 42.1279C650.666 40.8479 649.194 40.2079 647.082 40.2079H637.386L629.706 68.3359C629.578 68.8479 629.514 69.1999 629.514 69.3919C629.514 70.4159 630.186 70.9279 631.53 70.9279H649.386C651.05 70.9279 653.002 70.5439 655.242 69.7759C657.482 68.9439 659.498 67.6639 661.29 65.9359C663.082 64.1439 664.714 61.9679 666.186 59.4079C667.722 56.7839 668.938 54.4159 669.834 52.3039C670.73 50.1919 671.274 48.8479 671.466 48.2719H673.771L665.706 73.9999H609.642L610.41 70.9279Z" stroke="black" stroke-width="6" mask="url(#path-1-outside-1_667_13)"/>
<path d="M736.669 75.1519C734.941 75.1519 733.469 74.3839 732.253 72.8479C731.101 71.3119 730.525 69.0079 730.525 65.9359C730.525 64.5279 730.717 62.8639 731.101 60.9439C731.485 58.9599 731.933 57.3599 732.445 56.1439L738.589 41.8399C738.909 41.1359 739.229 40.2079 739.549 39.0559C739.933 37.9039 740.125 36.9439 740.125 36.1759C740.125 35.2799 739.933 34.5439 739.549 33.9679C739.229 33.3919 738.717 33.1039 738.013 33.1039C734.173 33.1039 730.109 36.7199 725.821 43.9519C723.261 48.3039 720.957 52.6239 718.909 56.9119C716.925 61.1999 715.517 64.7839 714.685 67.6639L712.765 73.9999H706.429L714.397 44.3359C714.525 43.8879 714.813 42.8639 715.261 41.2639C715.773 39.5999 716.029 38.1279 716.029 36.8479C716.029 34.3519 715.005 33.1039 712.957 33.1039C711.293 33.1039 709.021 35.2479 706.141 39.5359C703.261 43.8239 700.445 48.7839 697.693 54.4159C695.005 60.0479 693.181 64.4639 692.221 67.6639L690.301 73.9999H683.965L692.029 44.3359C692.989 40.4959 693.469 37.7759 693.469 36.1759C693.469 35.2799 693.341 34.6079 693.085 34.1599C692.829 33.7119 692.349 33.4879 691.645 33.4879C688.381 33.4879 684.925 38.6079 681.277 48.8479L679.357 48.2719C683.581 36.2399 688.253 30.2239 693.373 30.2239C697.149 30.2239 699.037 33.5199 699.037 40.1119C699.037 41.1999 698.749 43.0879 698.173 45.7759C697.597 48.4639 697.021 50.4159 696.445 51.6319L696.829 51.9199L697.981 49.8079C700.861 44.3039 703.645 39.6639 706.333 35.8879C709.085 32.1119 711.709 30.2239 714.205 30.2239C719.133 30.2239 721.597 33.2639 721.597 39.3439C721.597 40.6879 721.277 42.6399 720.637 45.1999C720.061 47.7599 719.517 49.9039 719.005 51.6319L719.293 51.9199L720.637 49.5199C723.453 44.0799 726.301 39.5039 729.181 35.7919C732.125 32.0799 735.357 30.2239 738.877 30.2239C740.797 30.2239 742.301 31.0239 743.389 32.6239C744.541 34.1599 745.117 36.4319 745.117 39.4399C745.117 40.8479 744.925 42.5759 744.541 44.6239C744.157 46.6079 743.709 48.1439 743.197 49.2319L737.053 63.5359C736.733 64.2399 736.381 65.1679 735.997 66.3199C735.677 67.4719 735.517 68.4319 735.517 69.1999C735.517 70.0959 735.709 70.8319 736.093 71.4079C736.477 71.9839 737.021 72.2719 737.725 72.2719C739.901 72.2719 741.981 70.6079 743.965 67.2799C745.949 63.9519 747.645 60.3679 749.053 56.5279L750.973 57.1039C749.245 62.2879 747.133 66.6079 744.637 70.0639C742.205 73.4559 739.549 75.1519 736.669 75.1519Z" stroke="black" stroke-width="6" mask="url(#path-1-outside-1_667_13)"/>
<path d="M765.149 93.0079V3.91992H769.373V93.0079H765.149Z" stroke="black" stroke-width="6" mask="url(#path-1-outside-1_667_13)"/>
</svg>
